<?xml version="1.0" standalone="no"?>
<!DOCTYPE svg PUBLIC "-//W3C//DTD SVG 20010904//EN"
 "http://www.w3.org/TR/2001/REC-SVG-20010904/DTD/svg10.dtd">
<svg version="1.0" xmlns="http://www.w3.org/2000/svg"
 width="338.000000pt" height="338.000000pt" viewBox="0 0 338.000000 338.000000"
 preserveAspectRatio="xMidYMid meet">
<metadata>
Created by potrace 1.11, written by Peter Selinger 2001-2013
</metadata>
<g transform="translate(0.000000,338.000000) scale(0.100000,-0.100000)"
fill="#000000" stroke="none">
<path d="M80 1695 l0 -1615 1610 0 1610 0 0 1615 0 1615 -1610 0 -1610 0 0
-1615z m3180 1550 c-102 -148 -297 -360 -430 -468 -235 -190 -425 -281 -865
-416 -258 -80 -383 -125 -500 -184 -241 -120 -437 -298 -607 -552 -44 -66 -83
-122 -86 -125 -3 -3 17 36 43 85 408 764 754 1128 1219 1280 56 18 176 50 267
70 338 74 397 88 511 126 123 40 325 133 418 192 30 20 56 36 58 36 2 1 -11
-19 -28 -44z m-239 -911 c-109 -157 -224 -297 -341 -414 -254 -253 -457 -355
-785 -395 -66 -8 -179 -21 -252 -30 -176 -21 -296 -55 -428 -119 -139 -68
-260 -154 -392 -279 -146 -141 -341 -376 -462 -562 l-33 -50 38 45 c76 89 211
224 282 281 225 181 458 246 660 184 28 -9 52 -19 52 -24 0 -11 -168 -85 -436
-192 -126 -50 -256 -105 -289 -121 -114 -57 -230 -141 -309 -222 -76 -78 -84
-82 -45 -25 10 14 15 30 11 34 -4 5 -1 5 7 0 9 -5 12 -3 8 6 -11 30 236 478
407 739 227 345 435 553 651 651 99 44 227 75 455 110 113 16 248 39 300 51
280 60 540 167 830 342 69 41 126 75 128 76 2 0 -24 -39 -57 -86z m-2101 -88
c0 -2 -21 -34 -46 -72 -136 -202 -201 -382 -373 -1029 -52 -192 -152 -518
-158 -512 -2 2 6 46 17 98 29 142 48 308 65 584 29 470 70 610 225 765 56 57
98 88 165 123 85 44 105 52 105 43z"/>
</g>
</svg>
