<?xml version="1.0" standalone="no"?>
<!DOCTYPE svg PUBLIC "-//W3C//DTD SVG 20010904//EN"
 "http://www.w3.org/TR/2001/REC-SVG-20010904/DTD/svg10.dtd">
<svg version="1.0" xmlns="http://www.w3.org/2000/svg"
 width="400.000000pt" height="400.000000pt" viewBox="0 0 400.000000 400.000000"
 preserveAspectRatio="xMidYMid meet">
<metadata>
Created by potrace 1.11, written by Peter Selinger 2001-2013
</metadata>
<g transform="translate(0.000000,400.000000) scale(0.100000,-0.100000)"
fill="#000000" stroke="none">
<path d="M3547 3574 c-61 -41 -265 -140 -352 -170 -44 -15 -83 -33 -87 -38 -4
-6 -8 -8 -8 -5 0 4 -51 -7 -112 -23 -97 -25 -243 -58 -328 -73 -14 -3 -40 -9
-58 -14 -18 -5 -35 -10 -37 -10 -3 -1 -6 -1 -7 -2 -2 0 -12 -2 -23 -3 -76 -11
-289 -83 -380 -128 -173 -87 -353 -231 -500 -399 -52 -60 -146 -179 -141 -179
3 0 -5 -11 -17 -24 -34 -36 -67 -80 -67 -89 0 -5 -7 -15 -15 -24 -8 -8 -13
-19 -10 -24 4 -5 2 -9 -4 -9 -5 0 -31 -35 -57 -77 -26 -43 -62 -102 -81 -130
-18 -29 -30 -53 -27 -53 4 0 0 -8 -8 -17 -8 -10 -36 -58 -62 -108 -43 -80 -38
-93 6 -19 27 44 42 68 48 74 3 3 24 27 45 55 50 63 197 210 250 251 200 153
364 227 800 359 381 116 570 207 805 388 88 68 340 322 340 343 0 4 8 14 18
23 9 9 24 26 32 37 8 12 30 42 48 68 18 25 32 46 30 46 -2 0 -20 -12 -41 -26z"/>
<path d="M3351 2713 c-6 -10 -11 -14 -11 -10 0 4 -24 -8 -54 -27 -157 -100
-395 -215 -576 -278 -47 -16 -92 -32 -100 -35 -8 -3 -22 -7 -30 -8 -8 -1 -53
-12 -100 -23 -47 -12 -101 -24 -120 -27 -19 -3 -42 -8 -50 -10 -8 -2 -35 -7
-60 -10 -25 -2 -54 -7 -65 -9 -11 -2 -47 -7 -80 -11 -32 -3 -62 -8 -65 -10 -3
-1 -27 -6 -55 -9 -132 -18 -235 -50 -360 -114 -113 -57 -343 -250 -328 -276 3
-6 3 -8 -2 -4 -8 8 -24 -8 -73 -71 -15 -19 -45 -57 -68 -85 -22 -28 -50 -68
-63 -89 -13 -21 -28 -43 -35 -50 -33 -34 -326 -532 -326 -555 0 -6 -3 -12 -7
-14 -9 -3 -113 -207 -115 -223 0 -5 -12 -27 -25 -49 -18 -28 -2 -15 59 46 138
141 262 212 586 337 153 59 328 134 397 169 l50 25 -40 14 c-154 54 -345 28
-520 -72 -132 -75 -215 -144 -374 -311 -13 -14 -25 -23 -28 -20 -6 5 70 121
110 168 12 14 36 43 52 64 49 62 166 195 197 222 9 9 14 20 11 25 -3 6 -2 7 4
4 5 -3 34 20 64 51 31 31 59 58 62 60 4 1 34 23 67 50 123 96 366 222 428 222
10 0 22 3 26 7 3 4 14 8 24 9 9 2 33 6 52 10 60 12 64 13 115 19 28 4 61 8 75
10 14 2 59 6 101 10 42 3 87 8 100 10 13 2 44 6 69 9 25 3 60 10 78 15 17 5
32 8 32 6 0 -10 211 70 265 100 72 40 157 97 205 138 108 91 159 141 153 150
-3 6 -2 7 4 4 5 -3 16 2 24 11 33 38 190 228 197 237 139 191 155 215 143 215
-5 0 -15 -8 -20 -17z"/>
<path d="M1155 2534 c-116 -58 -124 -63 -199 -139 -82 -83 -134 -177 -165
-302 -32 -127 -41 -211 -56 -483 -6 -115 -15 -230 -20 -280 -3 -25 -8 -65 -10
-90 -2 -25 -4 -45 -5 -45 -1 0 -3 -14 -5 -31 -3 -17 -11 -58 -19 -92 -23 -101
-2 -71 33 46 18 59 35 114 38 122 8 19 11 29 17 58 4 19 87 325 112 417 2 6 5
21 8 35 17 78 103 348 146 455 47 116 135 281 167 313 13 13 36 52 31 52 -2
-1 -34 -16 -73 -36z"/>
<path d="M647 951 c-4 -17 -3 -21 5 -13 5 5 8 16 6 23 -3 8 -7 3 -11 -10z"/>
</g>
</svg>
